<?xml version="1.0" encoding="utf-8"?>
<!-- Generator: Adobe Illustrator 17.0.0, SVG Export Plug-In . SVG Version: 6.00 Build 0)  -->
<!DOCTYPE svg PUBLIC "-//W3C//DTD SVG 1.1//EN" "http://www.w3.org/Graphics/SVG/1.1/DTD/svg11.dtd">
<svg version="1.1" id="Layer_1" xmlns="http://www.w3.org/2000/svg" xmlns:xlink="http://www.w3.org/1999/xlink" x="0px" y="0px"
	 width="225px" height="48px" viewBox="0 0 225 48" enable-background="new 0 0 225 48" xml:space="preserve">
<path fill="#FFFFFF" d="M23.364,8.44V34H20.88V22.048H5.724V34h-2.52V8.44h2.52v11.376H20.88V8.44H23.364z M29.278,34V15.244h2.448
	V34H29.278z M29.278,11.32v-3.6h2.448v3.6H29.278z M46.478,17.404c-1.656,0.048-3.096,0.504-4.32,1.368
	c-1.224,0.864-2.088,2.052-2.592,3.564V34h-2.448V15.244h2.304v4.5c0.696-1.44,1.632-2.568,2.808-3.384
	c1.176-0.816,2.436-1.224,3.78-1.224c0.192,0,0.348,0.012,0.468,0.036V17.404z M56.89,34.36c-1.368,0-2.628-0.252-3.78-0.756
	c-1.128-0.528-2.112-1.236-2.952-2.124c-0.84-0.912-1.5-1.956-1.98-3.132c-0.456-1.176-0.684-2.436-0.684-3.78
	c0-1.32,0.228-2.556,0.684-3.708c0.48-1.176,1.128-2.196,1.944-3.06c0.84-0.888,1.836-1.584,2.988-2.088
	c1.152-0.528,2.4-0.792,3.744-0.792c1.368,0,2.616,0.264,3.744,0.792c1.152,0.504,2.136,1.2,2.952,2.088
	c0.816,0.888,1.452,1.908,1.908,3.06c0.456,1.152,0.684,2.376,0.684,3.672c0,0.192,0,0.384,0,0.576s-0.012,0.324-0.036,0.396H50.05
	c0.072,1.008,0.3,1.944,0.684,2.808c0.408,0.84,0.924,1.572,1.548,2.196c0.624,0.624,1.332,1.116,2.124,1.476
	c0.816,0.336,1.68,0.504,2.592,0.504c0.6,0,1.2-0.084,1.8-0.252c0.6-0.168,1.152-0.396,1.656-0.684s0.96-0.636,1.368-1.044
	c0.408-0.432,0.72-0.9,0.936-1.404l2.124,0.576c-0.288,0.696-0.696,1.332-1.224,1.908c-0.528,0.552-1.14,1.044-1.836,1.476
	c-0.696,0.408-1.464,0.72-2.304,0.936C58.678,34.24,57.802,34.36,56.89,34.36z M63.802,23.632c-0.072-1.008-0.312-1.92-0.72-2.736
	c-0.384-0.84-0.888-1.56-1.512-2.16c-0.6-0.6-1.308-1.068-2.124-1.404c-0.792-0.336-1.644-0.504-2.556-0.504
	c-0.912,0-1.776,0.168-2.592,0.504c-0.816,0.336-1.536,0.804-2.16,1.404c-0.6,0.6-1.092,1.32-1.476,2.16
	c-0.36,0.84-0.576,1.752-0.648,2.736H63.802z M77.921,8.44h2.124L90.665,34h-2.664l-3.312-7.992H73.205L69.929,34h-2.7L77.921,8.44z
	 M84.113,24.028l-5.148-12.636l-5.22,12.636H84.113z M99.842,34.36c-1.464,0-2.892-0.24-4.284-0.72
	c-1.392-0.48-2.592-1.176-3.6-2.088l1.116-1.656c1.056,0.864,2.124,1.512,3.204,1.944c1.104,0.432,2.28,0.648,3.528,0.648
	c1.512,0,2.712-0.3,3.6-0.9c0.912-0.624,1.368-1.5,1.368-2.628c0-0.528-0.12-0.96-0.36-1.296c-0.24-0.36-0.6-0.672-1.08-0.936
	c-0.456-0.264-1.044-0.492-1.764-0.684c-0.696-0.216-1.512-0.432-2.448-0.648c-1.08-0.264-2.016-0.528-2.808-0.792
	s-1.452-0.564-1.98-0.9c-0.504-0.336-0.888-0.744-1.152-1.224c-0.24-0.504-0.36-1.128-0.36-1.872c0-0.936,0.18-1.764,0.54-2.484
	c0.384-0.72,0.888-1.308,1.512-1.764c0.648-0.48,1.392-0.84,2.232-1.08c0.864-0.24,1.776-0.36,2.736-0.36
	c1.44,0,2.748,0.24,3.924,0.72c1.176,0.456,2.124,1.068,2.844,1.836l-1.188,1.44c-0.696-0.72-1.548-1.26-2.556-1.62
	c-0.984-0.36-2.016-0.54-3.096-0.54c-0.648,0-1.248,0.072-1.8,0.216c-0.552,0.12-1.044,0.324-1.476,0.612
	c-0.408,0.288-0.732,0.66-0.972,1.116c-0.24,0.432-0.36,0.948-0.36,1.548c0,0.504,0.084,0.912,0.252,1.224s0.444,0.588,0.828,0.828
	c0.384,0.216,0.864,0.42,1.44,0.612c0.6,0.168,1.32,0.348,2.16,0.54c1.2,0.288,2.256,0.576,3.168,0.864
	c0.912,0.288,1.668,0.624,2.268,1.008c0.624,0.384,1.092,0.852,1.404,1.404c0.312,0.552,0.468,1.224,0.468,2.016
	c0,1.728-0.66,3.096-1.98,4.104S102.074,34.36,99.842,34.36z M117.385,34.36c-1.464,0-2.892-0.24-4.284-0.72s-2.592-1.176-3.6-2.088
	l1.116-1.656c1.056,0.864,2.124,1.512,3.204,1.944c1.104,0.432,2.28,0.648,3.528,0.648c1.512,0,2.712-0.3,3.6-0.9
	c0.912-0.624,1.368-1.5,1.368-2.628c0-0.528-0.12-0.96-0.36-1.296c-0.24-0.36-0.6-0.672-1.08-0.936
	c-0.456-0.264-1.044-0.492-1.764-0.684c-0.696-0.216-1.512-0.432-2.448-0.648c-1.08-0.264-2.016-0.528-2.808-0.792
	s-1.452-0.564-1.98-0.9c-0.504-0.336-0.888-0.744-1.152-1.224c-0.24-0.504-0.36-1.128-0.36-1.872c0-0.936,0.18-1.764,0.54-2.484
	c0.384-0.72,0.888-1.308,1.512-1.764c0.648-0.48,1.392-0.84,2.232-1.08c0.864-0.24,1.776-0.36,2.736-0.36
	c1.44,0,2.748,0.24,3.924,0.72c1.176,0.456,2.124,1.068,2.844,1.836l-1.188,1.44c-0.696-0.72-1.548-1.26-2.556-1.62
	c-0.984-0.36-2.016-0.54-3.096-0.54c-0.648,0-1.248,0.072-1.8,0.216c-0.552,0.12-1.044,0.324-1.476,0.612
	c-0.408,0.288-0.732,0.66-0.972,1.116c-0.24,0.432-0.36,0.948-0.36,1.548c0,0.504,0.084,0.912,0.252,1.224s0.444,0.588,0.828,0.828
	c0.384,0.216,0.864,0.42,1.44,0.612c0.6,0.168,1.32,0.348,2.16,0.54c1.2,0.288,2.256,0.576,3.168,0.864
	c0.912,0.288,1.668,0.624,2.268,1.008c0.624,0.384,1.092,0.852,1.404,1.404c0.312,0.552,0.468,1.224,0.468,2.016
	c0,1.728-0.66,3.096-1.98,4.104S119.617,34.36,117.385,34.36z M128.7,34V15.244h2.448V34H128.7z M128.7,11.32v-3.6h2.448v3.6H128.7z
	 M142.768,34.36c-1.464,0-2.892-0.24-4.284-0.72c-1.392-0.48-2.592-1.176-3.6-2.088L136,29.896c1.056,0.864,2.124,1.512,3.204,1.944
	c1.104,0.432,2.28,0.648,3.528,0.648c1.512,0,2.712-0.3,3.6-0.9c0.912-0.624,1.368-1.5,1.368-2.628c0-0.528-0.12-0.96-0.36-1.296
	c-0.24-0.36-0.6-0.672-1.08-0.936c-0.456-0.264-1.044-0.492-1.764-0.684c-0.696-0.216-1.512-0.432-2.448-0.648
	c-1.08-0.264-2.016-0.528-2.808-0.792c-0.792-0.264-1.452-0.564-1.98-0.9c-0.504-0.336-0.888-0.744-1.152-1.224
	c-0.24-0.504-0.36-1.128-0.36-1.872c0-0.936,0.18-1.764,0.54-2.484c0.384-0.72,0.888-1.308,1.512-1.764
	c0.648-0.48,1.392-0.84,2.232-1.08c0.864-0.24,1.776-0.36,2.736-0.36c1.44,0,2.748,0.24,3.924,0.72
	c1.176,0.456,2.124,1.068,2.844,1.836l-1.188,1.44c-0.696-0.72-1.548-1.26-2.556-1.62c-0.984-0.36-2.016-0.54-3.096-0.54
	c-0.648,0-1.248,0.072-1.8,0.216c-0.552,0.12-1.044,0.324-1.476,0.612c-0.408,0.288-0.732,0.66-0.972,1.116
	c-0.24,0.432-0.36,0.948-0.36,1.548c0,0.504,0.084,0.912,0.252,1.224s0.444,0.588,0.828,0.828c0.384,0.216,0.864,0.42,1.44,0.612
	c0.6,0.168,1.32,0.348,2.16,0.54c1.2,0.288,2.256,0.576,3.168,0.864s1.668,0.624,2.268,1.008c0.624,0.384,1.092,0.852,1.404,1.404
	s0.468,1.224,0.468,2.016c0,1.728-0.66,3.096-1.98,4.104C146.776,33.856,145,34.36,142.768,34.36z M163.083,33.1
	c-0.144,0.072-0.36,0.168-0.648,0.288c-0.264,0.12-0.576,0.24-0.936,0.36c-0.36,0.12-0.768,0.228-1.224,0.324
	c-0.456,0.096-0.936,0.144-1.44,0.144c-0.528,0-1.032-0.072-1.512-0.216s-0.9-0.36-1.26-0.648c-0.36-0.312-0.648-0.696-0.864-1.152
	c-0.216-0.456-0.324-0.984-0.324-1.584V17.188h-2.592v-1.944h2.592V8.908h2.448v6.336h4.32v1.944h-4.32v12.744
	c0.048,0.696,0.288,1.212,0.72,1.548c0.456,0.312,0.972,0.468,1.548,0.468c0.696,0,1.308-0.108,1.836-0.324
	c0.528-0.24,0.864-0.408,1.008-0.504L163.083,33.1z M165.781,34v-3.528h2.124V34H165.781z M194.634,34V15.604l-7.596,13.932h-2.232
	l-7.632-13.932V34h-4.032V8.44h4.32l8.46,15.624l8.46-15.624h4.32V34H194.634z M204.466,34V8.44h4.032v21.996h13.716V34H204.466z"/>
<line fill="none" stroke="#14B860" stroke-width="3" x1="0" y1="43.5" x2="223" y2="43.5"/>
</svg>
