<svg width="228" height="45" viewBox="0 0 228 45" fill="none" xmlns="http://www.w3.org/2000/svg">
<path d="M22.6406 33H19.248V21.1699H6.3457V33H2.9707V7.40625H6.3457V18.4102H19.248V7.40625H22.6406V33ZM31.6582 33H28.4062V13.9805H31.6582V33ZM28.1426 8.93555C28.1426 8.4082 28.3008 7.96289 28.6172 7.59961C28.9453 7.23633 29.4258 7.05469 30.0586 7.05469C30.6914 7.05469 31.1719 7.23633 31.5 7.59961C31.8281 7.96289 31.9922 8.4082 31.9922 8.93555C31.9922 9.46289 31.8281 9.90234 31.5 10.2539C31.1719 10.6055 30.6914 10.7812 30.0586 10.7812C29.4258 10.7812 28.9453 10.6055 28.6172 10.2539C28.3008 9.90234 28.1426 9.46289 28.1426 8.93555ZM46.0723 16.8984C45.5801 16.8164 45.0469 16.7754 44.4727 16.7754C42.3398 16.7754 40.8926 17.6836 40.1309 19.5V33H36.8789V13.9805H40.043L40.0957 16.1777C41.1621 14.4785 42.6738 13.6289 44.6309 13.6289C45.2637 13.6289 45.7441 13.7109 46.0723 13.875V16.8984ZM56.6191 33.3516C54.041 33.3516 51.9434 32.5078 50.3262 30.8203C48.709 29.1211 47.9004 26.8535 47.9004 24.0176V23.4199C47.9004 21.5332 48.2578 19.8516 48.9727 18.375C49.6992 16.8867 50.707 15.7266 51.9961 14.8945C53.2969 14.0508 54.7031 13.6289 56.2148 13.6289C58.6875 13.6289 60.6094 14.4434 61.9805 16.0723C63.3516 17.7012 64.0371 20.0332 64.0371 23.0684V24.4219H51.1523C51.1992 26.2969 51.7441 27.8145 52.7871 28.9746C53.8418 30.123 55.1777 30.6973 56.7949 30.6973C57.9434 30.6973 58.916 30.4629 59.7129 29.9941C60.5098 29.5254 61.207 28.9043 61.8047 28.1309L63.791 29.6777C62.1973 32.127 59.8066 33.3516 56.6191 33.3516ZM56.2148 16.3008C54.9023 16.3008 53.8008 16.7812 52.9102 17.7422C52.0195 18.6914 51.4688 20.0273 51.2578 21.75H60.7852V21.5039C60.6914 19.8516 60.2461 18.5742 59.4492 17.6719C58.6523 16.7578 57.5742 16.3008 56.2148 16.3008ZM82.459 26.3203H71.7363L69.3281 33H65.8477L75.6211 7.40625H78.5742L88.3652 33H84.9023L82.459 26.3203ZM72.7559 23.543H81.457L77.0977 11.5723L72.7559 23.543ZM102.375 27.9551C102.375 27.0762 102.041 26.3965 101.373 25.916C100.717 25.4238 99.5625 25.002 97.9102 24.6504C96.2695 24.2988 94.9629 23.877 93.9902 23.3848C93.0293 22.8926 92.3145 22.3066 91.8457 21.627C91.3887 20.9473 91.1602 20.1387 91.1602 19.2012C91.1602 17.6426 91.8164 16.3242 93.1289 15.2461C94.4531 14.168 96.1406 13.6289 98.1914 13.6289C100.348 13.6289 102.094 14.1855 103.43 15.2988C104.777 16.4121 105.451 17.8359 105.451 19.5703H102.182C102.182 18.6797 101.801 17.9121 101.039 17.2676C100.289 16.623 99.3398 16.3008 98.1914 16.3008C97.0078 16.3008 96.082 16.5586 95.4141 17.0742C94.7461 17.5898 94.4121 18.2637 94.4121 19.0957C94.4121 19.8809 94.7227 20.4727 95.3438 20.8711C95.9648 21.2695 97.084 21.6504 98.7012 22.0137C100.33 22.377 101.648 22.8105 102.656 23.3145C103.664 23.8184 104.408 24.4277 104.889 25.1426C105.381 25.8457 105.627 26.707 105.627 27.7266C105.627 29.4258 104.947 30.791 103.588 31.8223C102.229 32.8418 100.465 33.3516 98.2969 33.3516C96.7734 33.3516 95.4258 33.082 94.2539 32.543C93.082 32.0039 92.1621 31.2539 91.4941 30.293C90.8379 29.3203 90.5098 28.2715 90.5098 27.1465H93.7617C93.8203 28.2363 94.2539 29.1035 95.0625 29.748C95.8828 30.3809 96.9609 30.6973 98.2969 30.6973C99.5273 30.6973 100.512 30.4512 101.25 29.959C102 29.4551 102.375 28.7871 102.375 27.9551ZM120.938 27.9551C120.938 27.0762 120.604 26.3965 119.936 25.916C119.279 25.4238 118.125 25.002 116.473 24.6504C114.832 24.2988 113.525 23.877 112.553 23.3848C111.592 22.8926 110.877 22.3066 110.408 21.627C109.951 20.9473 109.723 20.1387 109.723 19.2012C109.723 17.6426 110.379 16.3242 111.691 15.2461C113.016 14.168 114.703 13.6289 116.754 13.6289C118.91 13.6289 120.656 14.1855 121.992 15.2988C123.34 16.4121 124.014 17.8359 124.014 19.5703H120.744C120.744 18.6797 120.363 17.9121 119.602 17.2676C118.852 16.623 117.902 16.3008 116.754 16.3008C115.57 16.3008 114.645 16.5586 113.977 17.0742C113.309 17.5898 112.975 18.2637 112.975 19.0957C112.975 19.8809 113.285 20.4727 113.906 20.8711C114.527 21.2695 115.646 21.6504 117.264 22.0137C118.893 22.377 120.211 22.8105 121.219 23.3145C122.227 23.8184 122.971 24.4277 123.451 25.1426C123.943 25.8457 124.189 26.707 124.189 27.7266C124.189 29.4258 123.51 30.791 122.15 31.8223C120.791 32.8418 119.027 33.3516 116.859 33.3516C115.336 33.3516 113.988 33.082 112.816 32.543C111.645 32.0039 110.725 31.2539 110.057 30.293C109.4 29.3203 109.072 28.2715 109.072 27.1465H112.324C112.383 28.2363 112.816 29.1035 113.625 29.748C114.445 30.3809 115.523 30.6973 116.859 30.6973C118.09 30.6973 119.074 30.4512 119.812 29.959C120.562 29.4551 120.938 28.7871 120.938 27.9551ZM131.959 33H128.707V13.9805H131.959V33ZM128.443 8.93555C128.443 8.4082 128.602 7.96289 128.918 7.59961C129.246 7.23633 129.727 7.05469 130.359 7.05469C130.992 7.05469 131.473 7.23633 131.801 7.59961C132.129 7.96289 132.293 8.4082 132.293 8.93555C132.293 9.46289 132.129 9.90234 131.801 10.2539C131.473 10.6055 130.992 10.7812 130.359 10.7812C129.727 10.7812 129.246 10.6055 128.918 10.2539C128.602 9.90234 128.443 9.46289 128.443 8.93555ZM148.254 27.9551C148.254 27.0762 147.92 26.3965 147.252 25.916C146.596 25.4238 145.441 25.002 143.789 24.6504C142.148 24.2988 140.842 23.877 139.869 23.3848C138.908 22.8926 138.193 22.3066 137.725 21.627C137.268 20.9473 137.039 20.1387 137.039 19.2012C137.039 17.6426 137.695 16.3242 139.008 15.2461C140.332 14.168 142.02 13.6289 144.07 13.6289C146.227 13.6289 147.973 14.1855 149.309 15.2988C150.656 16.4121 151.33 17.8359 151.33 19.5703H148.061C148.061 18.6797 147.68 17.9121 146.918 17.2676C146.168 16.623 145.219 16.3008 144.07 16.3008C142.887 16.3008 141.961 16.5586 141.293 17.0742C140.625 17.5898 140.291 18.2637 140.291 19.0957C140.291 19.8809 140.602 20.4727 141.223 20.8711C141.844 21.2695 142.963 21.6504 144.58 22.0137C146.209 22.377 147.527 22.8105 148.535 23.3145C149.543 23.8184 150.287 24.4277 150.768 25.1426C151.26 25.8457 151.506 26.707 151.506 27.7266C151.506 29.4258 150.826 30.791 149.467 31.8223C148.107 32.8418 146.344 33.3516 144.176 33.3516C142.652 33.3516 141.305 33.082 140.133 32.543C138.961 32.0039 138.041 31.2539 137.373 30.293C136.717 29.3203 136.389 28.2715 136.389 27.1465H139.641C139.699 28.2363 140.133 29.1035 140.941 29.748C141.762 30.3809 142.84 30.6973 144.176 30.6973C145.406 30.6973 146.391 30.4512 147.129 29.959C147.879 29.4551 148.254 28.7871 148.254 27.9551ZM160.154 9.375V13.9805H163.705V16.4941H160.154V28.2891C160.154 29.0508 160.312 29.625 160.629 30.0117C160.945 30.3867 161.484 30.5742 162.246 30.5742C162.621 30.5742 163.137 30.5039 163.793 30.3633V33C162.938 33.2344 162.105 33.3516 161.297 33.3516C159.844 33.3516 158.748 32.9121 158.01 32.0332C157.271 31.1543 156.902 29.9062 156.902 28.2891V16.4941H153.439V13.9805H156.902V9.375H160.154ZM167.59 31.2949C167.59 30.7324 167.754 30.2637 168.082 29.8887C168.422 29.5137 168.926 29.3262 169.594 29.3262C170.262 29.3262 170.766 29.5137 171.105 29.8887C171.457 30.2637 171.633 30.7324 171.633 31.2949C171.633 31.834 171.457 32.2852 171.105 32.6484C170.766 33.0117 170.262 33.1934 169.594 33.1934C168.926 33.1934 168.422 33.0117 168.082 32.6484C167.754 32.2852 167.59 31.834 167.59 31.2949ZM183.727 7.40625L190.301 25.9688L196.84 7.40625H203.766V33H198.475V26.0039L199.002 13.9277L192.094 33H188.473L181.582 13.9453L182.109 26.0039V33H176.836V7.40625H183.727ZM213.645 28.7637H224.842V33H208.371V7.40625H213.645V28.7637Z" fill="white"/>
<line y1="43.5" x2="228" y2="43.5" stroke="#14B860" stroke-width="3"/>
</svg>
