<svg width="225" height="94" viewBox="0 0 225 94" fill="none" xmlns="http://www.w3.org/2000/svg">
<path d="M15.576 4.96V22H13.92V14.032H3.816V22H2.136V4.96H3.816V12.544H13.92V4.96H15.576ZM19.5188 22V9.496H21.1508V22H19.5188ZM19.5188 6.88V4.48H21.1508V6.88H19.5188ZM30.9853 10.936C29.8813 10.968 28.9213 11.272 28.1053 11.848C27.2893 12.424 26.7133 13.216 26.3773 14.224V22H24.7453V9.496H26.2813V12.496C26.7453 11.536 27.3693 10.784 28.1533 10.24C28.9373 9.696 29.7773 9.424 30.6733 9.424C30.8013 9.424 30.9053 9.432 30.9853 9.448V10.936ZM37.9266 22.24C37.0146 22.24 36.1746 22.072 35.4066 21.736C34.6546 21.384 33.9986 20.912 33.4386 20.32C32.8786 19.712 32.4386 19.016 32.1186 18.232C31.8146 17.448 31.6626 16.608 31.6626 15.712C31.6626 14.832 31.8146 14.008 32.1186 13.24C32.4386 12.456 32.8706 11.776 33.4146 11.2C33.9746 10.608 34.6386 10.144 35.4066 9.808C36.1746 9.456 37.0066 9.28 37.9026 9.28C38.8146 9.28 39.6466 9.456 40.3986 9.808C41.1666 10.144 41.8226 10.608 42.3666 11.2C42.9106 11.792 43.3346 12.472 43.6386 13.24C43.9426 14.008 44.0946 14.824 44.0946 15.688C44.0946 15.816 44.0946 15.944 44.0946 16.072C44.0946 16.2 44.0866 16.288 44.0706 16.336H33.3666C33.4146 17.008 33.5666 17.632 33.8226 18.208C34.0946 18.768 34.4386 19.256 34.8546 19.672C35.2706 20.088 35.7426 20.416 36.2706 20.656C36.8146 20.88 37.3906 20.992 37.9986 20.992C38.3986 20.992 38.7986 20.936 39.1986 20.824C39.5986 20.712 39.9666 20.56 40.3026 20.368C40.6386 20.176 40.9426 19.944 41.2146 19.672C41.4866 19.384 41.6946 19.072 41.8386 18.736L43.2546 19.12C43.0626 19.584 42.7906 20.008 42.4386 20.392C42.0866 20.76 41.6786 21.088 41.2146 21.376C40.7506 21.648 40.2386 21.856 39.6786 22C39.1186 22.16 38.5346 22.24 37.9266 22.24ZM42.5346 15.088C42.4866 14.416 42.3266 13.808 42.0546 13.264C41.7986 12.704 41.4626 12.224 41.0466 11.824C40.6466 11.424 40.1746 11.112 39.6306 10.888C39.1026 10.664 38.5346 10.552 37.9266 10.552C37.3186 10.552 36.7426 10.664 36.1986 10.888C35.6546 11.112 35.1746 11.424 34.7586 11.824C34.3586 12.224 34.0306 12.704 33.7746 13.264C33.5346 13.824 33.3906 14.432 33.3426 15.088H42.5346ZM51.9473 4.96H53.3633L60.4433 22H58.6673L56.4593 16.672H48.8033L46.6193 22H44.8193L51.9473 4.96ZM56.0753 15.352L52.6433 6.928L49.1633 15.352H56.0753ZM66.5614 22.24C65.5854 22.24 64.6334 22.08 63.7054 21.76C62.7774 21.44 61.9774 20.976 61.3054 20.368L62.0494 19.264C62.7534 19.84 63.4654 20.272 64.1854 20.56C64.9214 20.848 65.7054 20.992 66.5374 20.992C67.5454 20.992 68.3454 20.792 68.9374 20.392C69.5454 19.976 69.8494 19.392 69.8494 18.64C69.8494 18.288 69.7694 18 69.6094 17.776C69.4494 17.536 69.2094 17.328 68.8894 17.152C68.5854 16.976 68.1934 16.824 67.7134 16.696C67.2494 16.552 66.7054 16.408 66.0814 16.264C65.3614 16.088 64.7374 15.912 64.2094 15.736C63.6814 15.56 63.2414 15.36 62.8894 15.136C62.5534 14.912 62.2974 14.64 62.1214 14.32C61.9614 13.984 61.8814 13.568 61.8814 13.072C61.8814 12.448 62.0014 11.896 62.2414 11.416C62.4974 10.936 62.8334 10.544 63.2494 10.24C63.6814 9.92 64.1774 9.68 64.7374 9.52C65.3134 9.36 65.9214 9.28 66.5614 9.28C67.5214 9.28 68.3934 9.44 69.1774 9.76C69.9614 10.064 70.5934 10.472 71.0734 10.984L70.2814 11.944C69.8174 11.464 69.2494 11.104 68.5774 10.864C67.9214 10.624 67.2334 10.504 66.5134 10.504C66.0814 10.504 65.6814 10.552 65.3134 10.648C64.9454 10.728 64.6174 10.864 64.3294 11.056C64.0574 11.248 63.8414 11.496 63.6814 11.8C63.5214 12.088 63.4414 12.432 63.4414 12.832C63.4414 13.168 63.4974 13.44 63.6094 13.648C63.7214 13.856 63.9054 14.04 64.1614 14.2C64.4174 14.344 64.7374 14.48 65.1214 14.608C65.5214 14.72 66.0014 14.84 66.5614 14.968C67.3614 15.16 68.0654 15.352 68.6734 15.544C69.2814 15.736 69.7854 15.96 70.1854 16.216C70.6014 16.472 70.9134 16.784 71.1214 17.152C71.3294 17.52 71.4334 17.968 71.4334 18.496C71.4334 19.648 70.9934 20.56 70.1134 21.232C69.2334 21.904 68.0494 22.24 66.5614 22.24ZM78.2567 22.24C77.2807 22.24 76.3287 22.08 75.4007 21.76C74.4727 21.44 73.6727 20.976 73.0007 20.368L73.7447 19.264C74.4487 19.84 75.1607 20.272 75.8807 20.56C76.6167 20.848 77.4007 20.992 78.2327 20.992C79.2407 20.992 80.0407 20.792 80.6327 20.392C81.2407 19.976 81.5447 19.392 81.5447 18.64C81.5447 18.288 81.4647 18 81.3047 17.776C81.1447 17.536 80.9047 17.328 80.5847 17.152C80.2807 16.976 79.8887 16.824 79.4087 16.696C78.9447 16.552 78.4007 16.408 77.7767 16.264C77.0567 16.088 76.4327 15.912 75.9047 15.736C75.3767 15.56 74.9367 15.36 74.5847 15.136C74.2487 14.912 73.9927 14.64 73.8167 14.32C73.6567 13.984 73.5767 13.568 73.5767 13.072C73.5767 12.448 73.6967 11.896 73.9367 11.416C74.1927 10.936 74.5287 10.544 74.9447 10.24C75.3767 9.92 75.8727 9.68 76.4327 9.52C77.0087 9.36 77.6167 9.28 78.2567 9.28C79.2167 9.28 80.0887 9.44 80.8727 9.76C81.6567 10.064 82.2887 10.472 82.7687 10.984L81.9767 11.944C81.5127 11.464 80.9447 11.104 80.2727 10.864C79.6167 10.624 78.9287 10.504 78.2087 10.504C77.7767 10.504 77.3767 10.552 77.0087 10.648C76.6407 10.728 76.3127 10.864 76.0247 11.056C75.7527 11.248 75.5367 11.496 75.3767 11.8C75.2167 12.088 75.1367 12.432 75.1367 12.832C75.1367 13.168 75.1927 13.44 75.3047 13.648C75.4167 13.856 75.6007 14.04 75.8567 14.2C76.1127 14.344 76.4327 14.48 76.8167 14.608C77.2167 14.72 77.6967 14.84 78.2567 14.968C79.0567 15.16 79.7607 15.352 80.3687 15.544C80.9767 15.736 81.4807 15.96 81.8807 16.216C82.2967 16.472 82.6087 16.784 82.8167 17.152C83.0247 17.52 83.1287 17.968 83.1287 18.496C83.1287 19.648 82.6887 20.56 81.8087 21.232C80.9287 21.904 79.7447 22.24 78.2567 22.24ZM85.8 22V9.496H87.432V22H85.8ZM85.8 6.88V4.48H87.432V6.88H85.8ZM95.1786 22.24C94.2026 22.24 93.2506 22.08 92.3226 21.76C91.3946 21.44 90.5946 20.976 89.9226 20.368L90.6666 19.264C91.3706 19.84 92.0826 20.272 92.8026 20.56C93.5386 20.848 94.3226 20.992 95.1546 20.992C96.1626 20.992 96.9626 20.792 97.5546 20.392C98.1626 19.976 98.4666 19.392 98.4666 18.64C98.4666 18.288 98.3866 18 98.2266 17.776C98.0666 17.536 97.8266 17.328 97.5066 17.152C97.2026 16.976 96.8106 16.824 96.3306 16.696C95.8666 16.552 95.3226 16.408 94.6986 16.264C93.9786 16.088 93.3546 15.912 92.8266 15.736C92.2986 15.56 91.8586 15.36 91.5066 15.136C91.1706 14.912 90.9146 14.64 90.7386 14.32C90.5786 13.984 90.4986 13.568 90.4986 13.072C90.4986 12.448 90.6186 11.896 90.8586 11.416C91.1146 10.936 91.4506 10.544 91.8666 10.24C92.2986 9.92 92.7946 9.68 93.3546 9.52C93.9306 9.36 94.5386 9.28 95.1786 9.28C96.1386 9.28 97.0106 9.44 97.7946 9.76C98.5786 10.064 99.2106 10.472 99.6906 10.984L98.8986 11.944C98.4346 11.464 97.8666 11.104 97.1946 10.864C96.5386 10.624 95.8506 10.504 95.1306 10.504C94.6986 10.504 94.2986 10.552 93.9306 10.648C93.5626 10.728 93.2346 10.864 92.9466 11.056C92.6746 11.248 92.4586 11.496 92.2986 11.8C92.1386 12.088 92.0586 12.432 92.0586 12.832C92.0586 13.168 92.1146 13.44 92.2266 13.648C92.3386 13.856 92.5226 14.04 92.7786 14.2C93.0346 14.344 93.3546 14.48 93.7386 14.608C94.1386 14.72 94.6186 14.84 95.1786 14.968C95.9786 15.16 96.6826 15.352 97.2906 15.544C97.8986 15.736 98.4026 15.96 98.8026 16.216C99.2186 16.472 99.5306 16.784 99.7386 17.152C99.9466 17.52 100.051 17.968 100.051 18.496C100.051 19.648 99.6106 20.56 98.7306 21.232C97.8506 21.904 96.6666 22.24 95.1786 22.24ZM108.722 21.4C108.626 21.448 108.482 21.512 108.29 21.592C108.114 21.672 107.906 21.752 107.666 21.832C107.426 21.912 107.154 21.984 106.85 22.048C106.546 22.112 106.226 22.144 105.89 22.144C105.538 22.144 105.202 22.096 104.882 22C104.562 21.904 104.282 21.76 104.042 21.568C103.802 21.36 103.61 21.104 103.466 20.8C103.322 20.496 103.25 20.144 103.25 19.744V10.792H101.522V9.496H103.25V5.272H104.882V9.496H107.762V10.792H104.882V19.288C104.914 19.752 105.074 20.096 105.362 20.32C105.666 20.528 106.01 20.632 106.394 20.632C106.858 20.632 107.266 20.56 107.618 20.416C107.97 20.256 108.194 20.144 108.29 20.08L108.722 21.4ZM110.521 22V19.648H111.937V22H110.521ZM129.756 22V9.736L124.692 19.024H123.204L118.116 9.736V22H115.428V4.96H118.308L123.948 15.376L129.588 4.96H132.468V22H129.756ZM136.311 22V4.96H138.999V19.624H148.143V22H136.311Z" fill="white"/>
<line y1="28.5" x2="148.667" y2="28.5" stroke="#14B860" stroke-width="3"/>
</svg>
