<svg xmlns="http://www.w3.org/2000/svg" viewBox="0 0 490.3 373"><defs><style>.cls-1,.cls-5{fill:#26b460;}.cls-2{fill:#d2d4de;}.cls-3{fill:#272829;}.cls-4{fill:#f6f8fc;}.cls-5{font-size:31.68px;font-family:Raleway-Bold, Raleway;font-weight:700;}.cls-6{fill:none;stroke:#26b460;stroke-miterlimit:10;stroke-width:3px;}.cls-7{fill:#f9b8b8;}.cls-8{fill:#ececec;}.cls-9{fill:#1f638f;}</style></defs><title>Value-Proposition</title><g id="Main_Graphic" data-name="Main Graphic"><path class="cls-1" d="M102.89,323.52a267.91,267.91,0,0,0,92,37c25.39,5,83.13,15.52,145.36-13.14,13-6,56.67-26.76,86.89-73.2C477.37,196.9,472,77.38,416.44,31.87,316.75-49.82,39.21,80.48,37,210.07,36.7,229.87,42.42,271.64,102.89,323.52Z"/><g id="Layer_10" data-name="Layer 10"><g id="Computer"><rect class="cls-2" x="219.12" y="87.09" width="208.5" height="139.5" rx="12" ry="12"/><path class="cls-3" d="M231.12,87.09h184.5a12,12,0,0,1,12,12v114a0,0,0,0,1,0,0H219.12a0,0,0,0,1,0,0v-114A12,12,0,0,1,231.12,87.09Z"/><rect class="cls-4" x="223.62" y="92.56" width="200" height="116.03"/><text class="cls-5" transform="translate(254.55 139.75)">APPLIED!</text><line class="cls-6" x1="254.55" y1="154.09" x2="390.12" y2="154.09"/><line class="cls-6" x1="254.55" y1="162.09" x2="297.62" y2="162.09"/><line class="cls-6" x1="254.55" y1="170.09" x2="312.12" y2="170.09"/><line class="cls-6" x1="254.55" y1="178.09" x2="338.12" y2="178.09"/><line class="cls-6" x1="254.55" y1="186.09" x2="272.62" y2="186.09"/><line class="cls-6" x1="300.8" y1="162.09" x2="390.12" y2="162.09"/><line class="cls-6" x1="314.55" y1="170.09" x2="372.12" y2="170.09"/><line class="cls-6" x1="376.55" y1="170.09" x2="390.12" y2="170.09"/><line class="cls-6" x1="340.55" y1="178.09" x2="390.12" y2="178.09"/><line class="cls-6" x1="277.01" y1="186.09" x2="334.58" y2="186.09"/><line class="cls-6" x1="338.12" y1="186.5" x2="390.12" y2="186.5"/></g><g id="Person"><circle class="cls-7" cx="39.07" cy="20.54" r="10.75"/><circle class="cls-7" cx="199.63" cy="21.54" r="9.99"/><path class="cls-8" d="M82.5,265.81a238.78,238.78,0,0,0-6.93,67.59l-.18,15.41h50.37s2-30,3.94-37,7.37,37,7.37,37h50.14s-.44-66.1-9.07-85.05l-95.2-2.11Z"/><g id="Layer_9" data-name="Layer 9"><path class="cls-7" d="M158.66,84.54a34.42,34.42,0,0,1-34.27,34.56A34,34,0,0,1,100.15,109a34.42,34.42,0,1,1,58.51-24.44Z"/><path class="cls-7" d="M113.13,127.81h27.1s-1.44-16.4,6.26-16.86-46.34,0-46.34,0S114,112.3,113.13,127.81Z"/></g><path class="cls-9" d="M32.62,29.81,49.9,24.19c7.54,21.2,12.47,35.25,15.22,43.12,0,0,8.78,25.08,22.6,45a27.81,27.81,0,0,0,10.4,9.48,26.39,26.39,0,0,0,14.94,2.63l27.07.12a18.26,18.26,0,0,0,8,.75,23.18,23.18,0,0,0,11.5-6c6.71-6.21,19.06-43.3,30.5-95.12l14,5.12c-3.23,17.09-7.32,35.33-12.5,54.5-5,18.45-10.41,35.64-16,51.5a192.51,192.51,0,0,0-3.86,43.47c.31,12.68,1.76,20.23,3.86,38,1.38,11.69,3.18,29,4.5,50.5l-97.5-1.5c2.22-20.94,4.16-37.74,5.5-49,2-17.25,4.14-26.16,3-39.5a110.68,110.68,0,0,0-7.5-31.5A473.3,473.3,0,0,1,59.9,102,473.39,473.39,0,0,1,32.62,29.81Z"/></g></g></g></svg>